<mxfile host="app.diagrams.net" modified="2023-12-25T03:32:45.634Z" agent="Mozilla/5.0 (Windows NT 10.0; Win64; x64) AppleWebKit/537.36 (KHTML, like Gecko) Chrome/120.0.0.0 Safari/537.36" etag="Ah95kA-0CkpufhwQoeSZ" version="22.1.11" type="github">
  <diagram id="C5RBs43oDa-KdzZeNtuy" name="Page-1">
    <mxGraphModel dx="1044" dy="518" grid="1" gridSize="10" guides="1" tooltips="1" connect="1" arrows="1" fold="1" page="1" pageScale="1" pageWidth="413" pageHeight="291" math="0" shadow="0">
      <root>
        <mxCell id="WIyWlLk6GJQsqaUBKTNV-0" />
        <mxCell id="WIyWlLk6GJQsqaUBKTNV-1" parent="WIyWlLk6GJQsqaUBKTNV-0" />
        <mxCell id="E2q93yiUl6-ZoSUlAbcf-96" value="&lt;font style=&quot;font-size: 6px;&quot;&gt;FTP&lt;/font&gt;" style="edgeStyle=orthogonalEdgeStyle;rounded=0;orthogonalLoop=1;jettySize=auto;html=1;" edge="1" parent="WIyWlLk6GJQsqaUBKTNV-1" source="PbRjBfNZ1IPVbh-uNb9a-8" target="PbRjBfNZ1IPVbh-uNb9a-9">
          <mxGeometry relative="1" as="geometry" />
        </mxCell>
        <mxCell id="PbRjBfNZ1IPVbh-uNb9a-8" value="&lt;font style=&quot;font-size: 7px;&quot;&gt;Sources&lt;/font&gt;" style="rounded=0;whiteSpace=wrap;html=1;verticalAlign=middle;fontSize=7;" parent="WIyWlLk6GJQsqaUBKTNV-1" vertex="1">
          <mxGeometry x="40" y="70" width="80" height="15" as="geometry" />
        </mxCell>
        <mxCell id="PbRjBfNZ1IPVbh-uNb9a-59" value="&lt;font style=&quot;font-size: 6px;&quot;&gt;To landing area in BDA&lt;/font&gt;" style="text;html=1;strokeColor=none;fillColor=none;align=center;verticalAlign=middle;whiteSpace=wrap;rounded=0;fontSize=7;" parent="WIyWlLk6GJQsqaUBKTNV-1" vertex="1">
          <mxGeometry x="260" y="60" width="82" height="10" as="geometry" />
        </mxCell>
        <mxCell id="E2q93yiUl6-ZoSUlAbcf-125" style="edgeStyle=orthogonalEdgeStyle;rounded=0;orthogonalLoop=1;jettySize=auto;html=1;" edge="1" parent="WIyWlLk6GJQsqaUBKTNV-1" source="PbRjBfNZ1IPVbh-uNb9a-90" target="E2q93yiUl6-ZoSUlAbcf-10">
          <mxGeometry relative="1" as="geometry" />
        </mxCell>
        <mxCell id="PbRjBfNZ1IPVbh-uNb9a-90" value="User" style="shape=umlActor;verticalLabelPosition=bottom;verticalAlign=top;html=1;outlineConnect=0;fontSize=7;" parent="WIyWlLk6GJQsqaUBKTNV-1" vertex="1">
          <mxGeometry x="503" y="310" width="15" height="25" as="geometry" />
        </mxCell>
        <mxCell id="E2q93yiUl6-ZoSUlAbcf-8" value="" style="group" vertex="1" connectable="0" parent="WIyWlLk6GJQsqaUBKTNV-1">
          <mxGeometry x="40" y="240" width="148" height="15" as="geometry" />
        </mxCell>
        <mxCell id="ZHkyda2_ylCRjAt9gWxV-0" value="&lt;font style=&quot;font-size: 7px;&quot;&gt;Zena Services&lt;/font&gt;" style="rounded=0;whiteSpace=wrap;html=1;fontSize=7;" parent="E2q93yiUl6-ZoSUlAbcf-8" vertex="1">
          <mxGeometry width="130" height="15" as="geometry" />
        </mxCell>
        <mxCell id="E2q93yiUl6-ZoSUlAbcf-6" value="" style="outlineConnect=0;dashed=0;verticalLabelPosition=bottom;verticalAlign=top;align=center;html=1;shape=mxgraph.aws3.worker;fillColor=#D9A741;gradientColor=none;fontSize=7;" vertex="1" parent="E2q93yiUl6-ZoSUlAbcf-8">
          <mxGeometry x="133" width="15" height="15" as="geometry" />
        </mxCell>
        <mxCell id="E2q93yiUl6-ZoSUlAbcf-9" value="" style="group" vertex="1" connectable="0" parent="WIyWlLk6GJQsqaUBKTNV-1">
          <mxGeometry x="40" y="260.5" width="148" height="15" as="geometry" />
        </mxCell>
        <mxCell id="ZHkyda2_ylCRjAt9gWxV-1" value="&lt;font style=&quot;font-size: 7px;&quot;&gt;Nagios Services&lt;/font&gt;" style="rounded=0;whiteSpace=wrap;html=1;fontSize=7;" parent="E2q93yiUl6-ZoSUlAbcf-9" vertex="1">
          <mxGeometry width="130" height="15" as="geometry" />
        </mxCell>
        <mxCell id="E2q93yiUl6-ZoSUlAbcf-7" value="" style="outlineConnect=0;dashed=0;verticalLabelPosition=bottom;verticalAlign=top;align=center;html=1;shape=mxgraph.aws3.worker;fillColor=#D9A741;gradientColor=none;fontSize=7;" vertex="1" parent="E2q93yiUl6-ZoSUlAbcf-9">
          <mxGeometry x="133" width="15" height="15" as="geometry" />
        </mxCell>
        <mxCell id="E2q93yiUl6-ZoSUlAbcf-11" value="" style="group" vertex="1" connectable="0" parent="WIyWlLk6GJQsqaUBKTNV-1">
          <mxGeometry x="560" y="315" width="148" height="15" as="geometry" />
        </mxCell>
        <mxCell id="E2q93yiUl6-ZoSUlAbcf-77" value="" style="group" vertex="1" connectable="0" parent="E2q93yiUl6-ZoSUlAbcf-11">
          <mxGeometry width="98" height="15" as="geometry" />
        </mxCell>
        <mxCell id="PbRjBfNZ1IPVbh-uNb9a-91" value="&lt;span style=&quot;font-size: 7px;&quot;&gt;HUE Load Balancer&lt;/span&gt;" style="rounded=0;whiteSpace=wrap;html=1;verticalAlign=bottom;container=0;fontSize=7;" parent="E2q93yiUl6-ZoSUlAbcf-77" vertex="1">
          <mxGeometry x="18" width="80" height="15" as="geometry" />
        </mxCell>
        <mxCell id="E2q93yiUl6-ZoSUlAbcf-10" value="" style="outlineConnect=0;dashed=0;verticalLabelPosition=bottom;verticalAlign=top;align=center;html=1;shape=mxgraph.aws3.worker;fillColor=#D9A741;gradientColor=none;fontSize=7;" vertex="1" parent="E2q93yiUl6-ZoSUlAbcf-77">
          <mxGeometry width="15" height="15" as="geometry" />
        </mxCell>
        <mxCell id="E2q93yiUl6-ZoSUlAbcf-50" value="" style="group" vertex="1" connectable="0" parent="WIyWlLk6GJQsqaUBKTNV-1">
          <mxGeometry x="140" y="20" width="31" height="11.75" as="geometry" />
        </mxCell>
        <mxCell id="E2q93yiUl6-ZoSUlAbcf-54" value="" style="group" vertex="1" connectable="0" parent="WIyWlLk6GJQsqaUBKTNV-1">
          <mxGeometry x="580" y="70" width="148" height="15" as="geometry" />
        </mxCell>
        <mxCell id="E2q93yiUl6-ZoSUlAbcf-80" value="" style="group" vertex="1" connectable="0" parent="E2q93yiUl6-ZoSUlAbcf-54">
          <mxGeometry x="-22" width="98" height="15" as="geometry" />
        </mxCell>
        <mxCell id="PbRjBfNZ1IPVbh-uNb9a-123" value="&lt;span style=&quot;font-size: 7px;&quot;&gt;HDFS&lt;/span&gt;" style="rounded=0;whiteSpace=wrap;html=1;verticalAlign=bottom;container=0;fontSize=7;" parent="E2q93yiUl6-ZoSUlAbcf-80" vertex="1">
          <mxGeometry x="18" width="80" height="15" as="geometry" />
        </mxCell>
        <mxCell id="E2q93yiUl6-ZoSUlAbcf-15" value="" style="outlineConnect=0;dashed=0;verticalLabelPosition=bottom;verticalAlign=top;align=center;html=1;shape=mxgraph.aws3.worker;fillColor=#D9A741;gradientColor=none;fontSize=7;" vertex="1" parent="E2q93yiUl6-ZoSUlAbcf-80">
          <mxGeometry width="15" height="15" as="geometry" />
        </mxCell>
        <mxCell id="E2q93yiUl6-ZoSUlAbcf-62" value="" style="group" vertex="1" connectable="0" parent="WIyWlLk6GJQsqaUBKTNV-1">
          <mxGeometry x="500" y="390" width="148" height="15" as="geometry" />
        </mxCell>
        <mxCell id="ZHkyda2_ylCRjAt9gWxV-3" value="&lt;font style=&quot;font-size: 6px;&quot;&gt;Zena Agent&lt;/font&gt;" style="rounded=0;whiteSpace=wrap;html=1;verticalAlign=middle;container=0;fontSize=7;horizontal=1;" parent="E2q93yiUl6-ZoSUlAbcf-62" vertex="1">
          <mxGeometry x="18" width="130" height="15" as="geometry" />
        </mxCell>
        <mxCell id="E2q93yiUl6-ZoSUlAbcf-13" value="" style="outlineConnect=0;dashed=0;verticalLabelPosition=bottom;verticalAlign=top;align=center;html=1;shape=mxgraph.aws3.worker;fillColor=#D9A741;gradientColor=none;fontSize=7;" vertex="1" parent="E2q93yiUl6-ZoSUlAbcf-62">
          <mxGeometry width="15" height="15" as="geometry" />
        </mxCell>
        <mxCell id="E2q93yiUl6-ZoSUlAbcf-63" value="" style="group" vertex="1" connectable="0" parent="WIyWlLk6GJQsqaUBKTNV-1">
          <mxGeometry x="500" y="410.5" width="148" height="15" as="geometry" />
        </mxCell>
        <mxCell id="ZHkyda2_ylCRjAt9gWxV-4" value="&lt;font style=&quot;font-size: 6px;&quot;&gt;Nagios Agent&lt;/font&gt;" style="rounded=0;whiteSpace=wrap;html=1;verticalAlign=middle;container=0;fontSize=7;horizontal=1;" parent="E2q93yiUl6-ZoSUlAbcf-63" vertex="1">
          <mxGeometry x="18" width="130" height="15" as="geometry" />
        </mxCell>
        <mxCell id="E2q93yiUl6-ZoSUlAbcf-14" value="" style="outlineConnect=0;dashed=0;verticalLabelPosition=bottom;verticalAlign=top;align=center;html=1;shape=mxgraph.aws3.worker;fillColor=#D9A741;gradientColor=none;fontSize=7;" vertex="1" parent="E2q93yiUl6-ZoSUlAbcf-63">
          <mxGeometry width="15" height="15" as="geometry" />
        </mxCell>
        <mxCell id="E2q93yiUl6-ZoSUlAbcf-97" style="edgeStyle=orthogonalEdgeStyle;rounded=0;orthogonalLoop=1;jettySize=auto;html=1;" edge="1" parent="WIyWlLk6GJQsqaUBKTNV-1" source="PbRjBfNZ1IPVbh-uNb9a-9" target="E2q93yiUl6-ZoSUlAbcf-2">
          <mxGeometry relative="1" as="geometry" />
        </mxCell>
        <mxCell id="E2q93yiUl6-ZoSUlAbcf-106" value="&lt;font style=&quot;font-size: 6px;&quot;&gt;FTP&lt;/font&gt;" style="edgeLabel;html=1;align=center;verticalAlign=middle;resizable=0;points=[];" vertex="1" connectable="0" parent="E2q93yiUl6-ZoSUlAbcf-97">
          <mxGeometry x="-0.4499" relative="1" as="geometry">
            <mxPoint x="21" as="offset" />
          </mxGeometry>
        </mxCell>
        <mxCell id="PbRjBfNZ1IPVbh-uNb9a-9" value="&lt;font style=&quot;font-size: 7px;&quot;&gt;ODS&amp;nbsp;(Staging)&lt;/font&gt;" style="rounded=0;whiteSpace=wrap;html=1;fontSize=7;" parent="WIyWlLk6GJQsqaUBKTNV-1" vertex="1">
          <mxGeometry x="170" y="70" width="80" height="15" as="geometry" />
        </mxCell>
        <mxCell id="E2q93yiUl6-ZoSUlAbcf-21" value="" style="shape=image;html=1;verticalAlign=top;verticalLabelPosition=bottom;labelBackgroundColor=#ffffff;imageAspect=0;aspect=fixed;image=https://cdn0.iconfinder.com/data/icons/evericons-24px-vol-1/24/file-text-128.png" vertex="1" parent="WIyWlLk6GJQsqaUBKTNV-1">
          <mxGeometry x="302" y="85" width="15" height="15" as="geometry" />
        </mxCell>
        <mxCell id="E2q93yiUl6-ZoSUlAbcf-73" value="" style="group" vertex="1" connectable="0" parent="WIyWlLk6GJQsqaUBKTNV-1">
          <mxGeometry x="370" y="70" width="98" height="15" as="geometry" />
        </mxCell>
        <mxCell id="PbRjBfNZ1IPVbh-uNb9a-76" value="&lt;span style=&quot;font-size: 7px;&quot;&gt;Bash Script (KSH)&lt;/span&gt;" style="rounded=0;whiteSpace=wrap;html=1;verticalAlign=bottom;container=0;fontSize=7;" parent="E2q93yiUl6-ZoSUlAbcf-73" vertex="1">
          <mxGeometry x="18" width="80" height="15" as="geometry" />
        </mxCell>
        <mxCell id="E2q93yiUl6-ZoSUlAbcf-2" value="" style="outlineConnect=0;dashed=0;verticalLabelPosition=bottom;verticalAlign=top;align=center;html=1;shape=mxgraph.aws3.worker;fillColor=#D9A741;gradientColor=none;fontSize=7;" vertex="1" parent="E2q93yiUl6-ZoSUlAbcf-73">
          <mxGeometry width="15" height="15" as="geometry" />
        </mxCell>
        <mxCell id="E2q93yiUl6-ZoSUlAbcf-74" value="" style="group" vertex="1" connectable="0" parent="WIyWlLk6GJQsqaUBKTNV-1">
          <mxGeometry x="200" y="131" width="98" height="15" as="geometry" />
        </mxCell>
        <mxCell id="E2q93yiUl6-ZoSUlAbcf-67" value="&lt;span style=&quot;font-size: 7px;&quot;&gt;Sqoop Service&lt;/span&gt;" style="rounded=0;whiteSpace=wrap;html=1;verticalAlign=bottom;container=0;fontSize=7;" vertex="1" parent="E2q93yiUl6-ZoSUlAbcf-74">
          <mxGeometry x="18" width="80" height="15" as="geometry" />
        </mxCell>
        <mxCell id="E2q93yiUl6-ZoSUlAbcf-68" value="" style="outlineConnect=0;dashed=0;verticalLabelPosition=bottom;verticalAlign=top;align=center;html=1;shape=mxgraph.aws3.worker;fillColor=#D9A741;gradientColor=none;fontSize=7;" vertex="1" parent="E2q93yiUl6-ZoSUlAbcf-74">
          <mxGeometry width="15" height="15" as="geometry" />
        </mxCell>
        <mxCell id="E2q93yiUl6-ZoSUlAbcf-75" value="" style="group" vertex="1" connectable="0" parent="WIyWlLk6GJQsqaUBKTNV-1">
          <mxGeometry x="558" y="177.5" width="98" height="15" as="geometry" />
        </mxCell>
        <mxCell id="PbRjBfNZ1IPVbh-uNb9a-119" value="Hiveserver2 Proxy&amp;nbsp;" style="rounded=0;whiteSpace=wrap;html=1;verticalAlign=bottom;container=0;fontSize=7;" parent="E2q93yiUl6-ZoSUlAbcf-75" vertex="1">
          <mxGeometry x="18" width="80" height="15" as="geometry" />
        </mxCell>
        <mxCell id="E2q93yiUl6-ZoSUlAbcf-4" value="" style="outlineConnect=0;dashed=0;verticalLabelPosition=bottom;verticalAlign=top;align=center;html=1;shape=mxgraph.aws3.worker;fillColor=#D9A741;gradientColor=none;fontSize=7;" vertex="1" parent="E2q93yiUl6-ZoSUlAbcf-75">
          <mxGeometry width="15" height="15" as="geometry" />
        </mxCell>
        <mxCell id="E2q93yiUl6-ZoSUlAbcf-76" value="" style="group" vertex="1" connectable="0" parent="WIyWlLk6GJQsqaUBKTNV-1">
          <mxGeometry x="370" y="131" width="98" height="15" as="geometry" />
        </mxCell>
        <mxCell id="ZHkyda2_ylCRjAt9gWxV-5" value="&lt;font style=&quot;font-size: 6px;&quot;&gt;ODI&lt;/font&gt;" style="rounded=0;html=1;verticalAlign=middle;container=0;fontSize=7;horizontal=1;" parent="E2q93yiUl6-ZoSUlAbcf-76" vertex="1">
          <mxGeometry x="18" width="80" height="15" as="geometry" />
        </mxCell>
        <mxCell id="E2q93yiUl6-ZoSUlAbcf-72" value="" style="shadow=0;dashed=0;html=1;strokeColor=none;fillColor=#EF8F21;labelPosition=center;verticalLabelPosition=bottom;verticalAlign=top;align=center;outlineConnect=0;shape=mxgraph.veeam.availability_orchestrator;" vertex="1" parent="E2q93yiUl6-ZoSUlAbcf-76">
          <mxGeometry width="16" height="15" as="geometry" />
        </mxCell>
        <mxCell id="E2q93yiUl6-ZoSUlAbcf-78" value="" style="group" vertex="1" connectable="0" parent="WIyWlLk6GJQsqaUBKTNV-1">
          <mxGeometry x="690" y="120" width="98" height="15" as="geometry" />
        </mxCell>
        <mxCell id="PbRjBfNZ1IPVbh-uNb9a-85" value="&lt;span style=&quot;font-size: 7px;&quot;&gt;Hiveserver2&lt;br&gt;&lt;/span&gt;" style="rounded=0;whiteSpace=wrap;html=1;verticalAlign=bottom;container=0;fontSize=7;" parent="E2q93yiUl6-ZoSUlAbcf-78" vertex="1">
          <mxGeometry x="18" width="80" height="15" as="geometry" />
        </mxCell>
        <mxCell id="E2q93yiUl6-ZoSUlAbcf-17" value="" style="outlineConnect=0;dashed=0;verticalLabelPosition=bottom;verticalAlign=top;align=center;html=1;shape=mxgraph.aws3.worker;fillColor=#D9A741;gradientColor=none;fontSize=7;" vertex="1" parent="E2q93yiUl6-ZoSUlAbcf-78">
          <mxGeometry width="15" height="15" as="geometry" />
        </mxCell>
        <mxCell id="E2q93yiUl6-ZoSUlAbcf-82" value="" style="group" vertex="1" connectable="0" parent="WIyWlLk6GJQsqaUBKTNV-1">
          <mxGeometry x="690" y="138.75" width="98" height="15" as="geometry" />
        </mxCell>
        <mxCell id="E2q93yiUl6-ZoSUlAbcf-25" value="&lt;span style=&quot;font-size: 7px;&quot;&gt;Hiveserver2&lt;br&gt;&lt;/span&gt;" style="rounded=0;whiteSpace=wrap;html=1;verticalAlign=bottom;container=0;fontSize=7;" vertex="1" parent="E2q93yiUl6-ZoSUlAbcf-82">
          <mxGeometry x="18" width="80" height="15" as="geometry" />
        </mxCell>
        <mxCell id="E2q93yiUl6-ZoSUlAbcf-26" value="" style="outlineConnect=0;dashed=0;verticalLabelPosition=bottom;verticalAlign=top;align=center;html=1;shape=mxgraph.aws3.worker;fillColor=#D9A741;gradientColor=none;fontSize=7;" vertex="1" parent="E2q93yiUl6-ZoSUlAbcf-82">
          <mxGeometry width="15" height="15" as="geometry" />
        </mxCell>
        <mxCell id="E2q93yiUl6-ZoSUlAbcf-83" value="" style="group" vertex="1" connectable="0" parent="WIyWlLk6GJQsqaUBKTNV-1">
          <mxGeometry x="690" y="158.75" width="98" height="15" as="geometry" />
        </mxCell>
        <mxCell id="E2q93yiUl6-ZoSUlAbcf-28" value="&lt;span style=&quot;font-size: 7px;&quot;&gt;Hiveserver2&lt;br&gt;&lt;/span&gt;" style="rounded=0;whiteSpace=wrap;html=1;verticalAlign=bottom;container=0;fontSize=7;" vertex="1" parent="E2q93yiUl6-ZoSUlAbcf-83">
          <mxGeometry x="18" width="80" height="15" as="geometry" />
        </mxCell>
        <mxCell id="E2q93yiUl6-ZoSUlAbcf-29" value="" style="outlineConnect=0;dashed=0;verticalLabelPosition=bottom;verticalAlign=top;align=center;html=1;shape=mxgraph.aws3.worker;fillColor=#D9A741;gradientColor=none;fontSize=7;" vertex="1" parent="E2q93yiUl6-ZoSUlAbcf-83">
          <mxGeometry width="15" height="15" as="geometry" />
        </mxCell>
        <mxCell id="E2q93yiUl6-ZoSUlAbcf-84" value="" style="group" vertex="1" connectable="0" parent="WIyWlLk6GJQsqaUBKTNV-1">
          <mxGeometry x="690" y="177.5" width="98" height="15" as="geometry" />
        </mxCell>
        <mxCell id="E2q93yiUl6-ZoSUlAbcf-31" value="&lt;span style=&quot;font-size: 7px;&quot;&gt;Hiveserver2&lt;br&gt;&lt;/span&gt;" style="rounded=0;whiteSpace=wrap;html=1;verticalAlign=bottom;container=0;fontSize=7;" vertex="1" parent="E2q93yiUl6-ZoSUlAbcf-84">
          <mxGeometry x="18" width="80" height="15" as="geometry" />
        </mxCell>
        <mxCell id="E2q93yiUl6-ZoSUlAbcf-32" value="" style="outlineConnect=0;dashed=0;verticalLabelPosition=bottom;verticalAlign=top;align=center;html=1;shape=mxgraph.aws3.worker;fillColor=#D9A741;gradientColor=none;fontSize=7;" vertex="1" parent="E2q93yiUl6-ZoSUlAbcf-84">
          <mxGeometry width="15" height="15" as="geometry" />
        </mxCell>
        <mxCell id="E2q93yiUl6-ZoSUlAbcf-85" value="" style="group" vertex="1" connectable="0" parent="WIyWlLk6GJQsqaUBKTNV-1">
          <mxGeometry x="690" y="197.75" width="98" height="15" as="geometry" />
        </mxCell>
        <mxCell id="E2q93yiUl6-ZoSUlAbcf-34" value="&lt;span style=&quot;font-size: 7px;&quot;&gt;Hiveserver2&lt;br&gt;&lt;/span&gt;" style="rounded=0;whiteSpace=wrap;html=1;verticalAlign=bottom;container=0;fontSize=7;" vertex="1" parent="E2q93yiUl6-ZoSUlAbcf-85">
          <mxGeometry x="18" width="80" height="15" as="geometry" />
        </mxCell>
        <mxCell id="E2q93yiUl6-ZoSUlAbcf-35" value="" style="outlineConnect=0;dashed=0;verticalLabelPosition=bottom;verticalAlign=top;align=center;html=1;shape=mxgraph.aws3.worker;fillColor=#D9A741;gradientColor=none;fontSize=7;" vertex="1" parent="E2q93yiUl6-ZoSUlAbcf-85">
          <mxGeometry width="15" height="15" as="geometry" />
        </mxCell>
        <mxCell id="E2q93yiUl6-ZoSUlAbcf-86" value="" style="group" vertex="1" connectable="0" parent="WIyWlLk6GJQsqaUBKTNV-1">
          <mxGeometry x="690" y="216.5" width="98" height="15" as="geometry" />
        </mxCell>
        <mxCell id="E2q93yiUl6-ZoSUlAbcf-37" value="&lt;span style=&quot;font-size: 7px;&quot;&gt;Hiveserver2&lt;br&gt;&lt;/span&gt;" style="rounded=0;whiteSpace=wrap;html=1;verticalAlign=bottom;container=0;fontSize=7;" vertex="1" parent="E2q93yiUl6-ZoSUlAbcf-86">
          <mxGeometry x="18" width="80" height="15" as="geometry" />
        </mxCell>
        <mxCell id="E2q93yiUl6-ZoSUlAbcf-38" value="" style="outlineConnect=0;dashed=0;verticalLabelPosition=bottom;verticalAlign=top;align=center;html=1;shape=mxgraph.aws3.worker;fillColor=#D9A741;gradientColor=none;fontSize=7;" vertex="1" parent="E2q93yiUl6-ZoSUlAbcf-86">
          <mxGeometry width="15" height="15" as="geometry" />
        </mxCell>
        <mxCell id="E2q93yiUl6-ZoSUlAbcf-87" value="" style="group" vertex="1" connectable="0" parent="WIyWlLk6GJQsqaUBKTNV-1">
          <mxGeometry x="690" y="236.5" width="98" height="15" as="geometry" />
        </mxCell>
        <mxCell id="E2q93yiUl6-ZoSUlAbcf-40" value="&lt;span style=&quot;font-size: 7px;&quot;&gt;Hiveserver2&lt;br&gt;&lt;/span&gt;" style="rounded=0;whiteSpace=wrap;html=1;verticalAlign=bottom;container=0;fontSize=7;" vertex="1" parent="E2q93yiUl6-ZoSUlAbcf-87">
          <mxGeometry x="18" width="80" height="15" as="geometry" />
        </mxCell>
        <mxCell id="E2q93yiUl6-ZoSUlAbcf-41" value="" style="outlineConnect=0;dashed=0;verticalLabelPosition=bottom;verticalAlign=top;align=center;html=1;shape=mxgraph.aws3.worker;fillColor=#D9A741;gradientColor=none;fontSize=7;" vertex="1" parent="E2q93yiUl6-ZoSUlAbcf-87">
          <mxGeometry width="15" height="15" as="geometry" />
        </mxCell>
        <mxCell id="E2q93yiUl6-ZoSUlAbcf-88" value="" style="group" vertex="1" connectable="0" parent="WIyWlLk6GJQsqaUBKTNV-1">
          <mxGeometry x="690" y="315" width="97" height="15" as="geometry" />
        </mxCell>
        <mxCell id="E2q93yiUl6-ZoSUlAbcf-0" value="&lt;span style=&quot;font-size: 7px;&quot;&gt;HUE Server&lt;/span&gt;" style="rounded=0;whiteSpace=wrap;html=1;verticalAlign=bottom;container=0;fontSize=7;" vertex="1" parent="E2q93yiUl6-ZoSUlAbcf-88">
          <mxGeometry x="17" width="80" height="15" as="geometry" />
        </mxCell>
        <mxCell id="E2q93yiUl6-ZoSUlAbcf-18" value="" style="outlineConnect=0;dashed=0;verticalLabelPosition=bottom;verticalAlign=top;align=center;html=1;shape=mxgraph.aws3.worker;fillColor=#D9A741;gradientColor=none;fontSize=7;" vertex="1" parent="E2q93yiUl6-ZoSUlAbcf-88">
          <mxGeometry width="15" height="15" as="geometry" />
        </mxCell>
        <mxCell id="E2q93yiUl6-ZoSUlAbcf-90" value="" style="group" vertex="1" connectable="0" parent="WIyWlLk6GJQsqaUBKTNV-1">
          <mxGeometry x="690" y="336.75" width="97" height="15" as="geometry" />
        </mxCell>
        <mxCell id="PbRjBfNZ1IPVbh-uNb9a-152" value="&lt;span style=&quot;font-size: 7px;&quot;&gt;HUE Server&lt;/span&gt;" style="rounded=0;whiteSpace=wrap;html=1;verticalAlign=bottom;container=0;fontSize=7;" parent="E2q93yiUl6-ZoSUlAbcf-90" vertex="1">
          <mxGeometry x="17" width="80" height="15" as="geometry" />
        </mxCell>
        <mxCell id="E2q93yiUl6-ZoSUlAbcf-19" value="" style="outlineConnect=0;dashed=0;verticalLabelPosition=bottom;verticalAlign=top;align=center;html=1;shape=mxgraph.aws3.worker;fillColor=#D9A741;gradientColor=none;fontSize=7;" vertex="1" parent="E2q93yiUl6-ZoSUlAbcf-90">
          <mxGeometry width="15" height="15" as="geometry" />
        </mxCell>
        <mxCell id="E2q93yiUl6-ZoSUlAbcf-91" value="" style="group" vertex="1" connectable="0" parent="WIyWlLk6GJQsqaUBKTNV-1">
          <mxGeometry x="690" y="357.5" width="97" height="15" as="geometry" />
        </mxCell>
        <mxCell id="PbRjBfNZ1IPVbh-uNb9a-139" value="&lt;span style=&quot;font-size: 7px;&quot;&gt;HUE Server&lt;/span&gt;" style="rounded=0;whiteSpace=wrap;html=1;verticalAlign=bottom;container=0;fontSize=7;" parent="E2q93yiUl6-ZoSUlAbcf-91" vertex="1">
          <mxGeometry x="17" width="80" height="15" as="geometry" />
        </mxCell>
        <mxCell id="E2q93yiUl6-ZoSUlAbcf-20" value="" style="outlineConnect=0;dashed=0;verticalLabelPosition=bottom;verticalAlign=top;align=center;html=1;shape=mxgraph.aws3.worker;fillColor=#D9A741;gradientColor=none;fontSize=7;" vertex="1" parent="E2q93yiUl6-ZoSUlAbcf-91">
          <mxGeometry width="15" height="15" as="geometry" />
        </mxCell>
        <mxCell id="E2q93yiUl6-ZoSUlAbcf-93" value="" style="strokeWidth=2;html=1;shape=mxgraph.flowchart.database;whiteSpace=wrap;" vertex="1" parent="WIyWlLk6GJQsqaUBKTNV-1">
          <mxGeometry x="180" y="147" width="12" height="13" as="geometry" />
        </mxCell>
        <mxCell id="E2q93yiUl6-ZoSUlAbcf-98" value="&lt;font style=&quot;font-size: 6px;&quot;&gt;Sqoop&lt;/font&gt;" style="edgeStyle=orthogonalEdgeStyle;rounded=0;orthogonalLoop=1;jettySize=auto;html=1;entryX=0;entryY=0.5;entryDx=0;entryDy=0;entryPerimeter=0;" edge="1" parent="WIyWlLk6GJQsqaUBKTNV-1" target="E2q93yiUl6-ZoSUlAbcf-68">
          <mxGeometry x="0.1256" y="-2" relative="1" as="geometry">
            <mxPoint x="81" y="85" as="sourcePoint" />
            <mxPoint x="351" y="137.5" as="targetPoint" />
            <Array as="points">
              <mxPoint x="81" y="138" />
            </Array>
            <mxPoint as="offset" />
          </mxGeometry>
        </mxCell>
        <mxCell id="E2q93yiUl6-ZoSUlAbcf-115" style="edgeStyle=orthogonalEdgeStyle;rounded=0;orthogonalLoop=1;jettySize=auto;html=1;" edge="1" parent="WIyWlLk6GJQsqaUBKTNV-1" source="ZHkyda2_ylCRjAt9gWxV-5" target="PbRjBfNZ1IPVbh-uNb9a-76">
          <mxGeometry relative="1" as="geometry" />
        </mxCell>
        <mxCell id="E2q93yiUl6-ZoSUlAbcf-118" style="edgeStyle=orthogonalEdgeStyle;rounded=0;orthogonalLoop=1;jettySize=auto;html=1;entryX=1;entryY=0.5;entryDx=0;entryDy=0;" edge="1" parent="WIyWlLk6GJQsqaUBKTNV-1" source="E2q93yiUl6-ZoSUlAbcf-72" target="E2q93yiUl6-ZoSUlAbcf-67">
          <mxGeometry relative="1" as="geometry" />
        </mxCell>
        <mxCell id="E2q93yiUl6-ZoSUlAbcf-119" style="edgeStyle=orthogonalEdgeStyle;rounded=0;orthogonalLoop=1;jettySize=auto;html=1;entryX=0;entryY=0.5;entryDx=0;entryDy=0;entryPerimeter=0;" edge="1" parent="WIyWlLk6GJQsqaUBKTNV-1" source="ZHkyda2_ylCRjAt9gWxV-5" target="E2q93yiUl6-ZoSUlAbcf-15">
          <mxGeometry relative="1" as="geometry" />
        </mxCell>
        <mxCell id="E2q93yiUl6-ZoSUlAbcf-120" style="edgeStyle=orthogonalEdgeStyle;rounded=0;orthogonalLoop=1;jettySize=auto;html=1;entryX=0;entryY=0.5;entryDx=0;entryDy=0;entryPerimeter=0;" edge="1" parent="WIyWlLk6GJQsqaUBKTNV-1" source="ZHkyda2_ylCRjAt9gWxV-5" target="E2q93yiUl6-ZoSUlAbcf-4">
          <mxGeometry relative="1" as="geometry" />
        </mxCell>
        <mxCell id="E2q93yiUl6-ZoSUlAbcf-126" style="edgeStyle=orthogonalEdgeStyle;rounded=0;orthogonalLoop=1;jettySize=auto;html=1;entryX=0;entryY=0.5;entryDx=0;entryDy=0;entryPerimeter=0;" edge="1" parent="WIyWlLk6GJQsqaUBKTNV-1" source="PbRjBfNZ1IPVbh-uNb9a-119" target="E2q93yiUl6-ZoSUlAbcf-17">
          <mxGeometry relative="1" as="geometry">
            <Array as="points">
              <mxPoint x="670" y="185" />
              <mxPoint x="670" y="128" />
            </Array>
          </mxGeometry>
        </mxCell>
        <mxCell id="E2q93yiUl6-ZoSUlAbcf-127" style="edgeStyle=orthogonalEdgeStyle;rounded=0;orthogonalLoop=1;jettySize=auto;html=1;entryX=0;entryY=0.5;entryDx=0;entryDy=0;entryPerimeter=0;" edge="1" parent="WIyWlLk6GJQsqaUBKTNV-1" source="PbRjBfNZ1IPVbh-uNb9a-119" target="E2q93yiUl6-ZoSUlAbcf-26">
          <mxGeometry relative="1" as="geometry">
            <Array as="points">
              <mxPoint x="670" y="185" />
              <mxPoint x="670" y="146" />
            </Array>
          </mxGeometry>
        </mxCell>
        <mxCell id="E2q93yiUl6-ZoSUlAbcf-128" style="edgeStyle=orthogonalEdgeStyle;rounded=0;orthogonalLoop=1;jettySize=auto;html=1;entryX=0;entryY=0.5;entryDx=0;entryDy=0;entryPerimeter=0;" edge="1" parent="WIyWlLk6GJQsqaUBKTNV-1" source="PbRjBfNZ1IPVbh-uNb9a-119" target="E2q93yiUl6-ZoSUlAbcf-29">
          <mxGeometry relative="1" as="geometry">
            <Array as="points">
              <mxPoint x="670" y="185" />
              <mxPoint x="670" y="166" />
            </Array>
          </mxGeometry>
        </mxCell>
        <mxCell id="E2q93yiUl6-ZoSUlAbcf-129" style="edgeStyle=orthogonalEdgeStyle;rounded=0;orthogonalLoop=1;jettySize=auto;html=1;entryX=0;entryY=0.5;entryDx=0;entryDy=0;entryPerimeter=0;" edge="1" parent="WIyWlLk6GJQsqaUBKTNV-1" source="PbRjBfNZ1IPVbh-uNb9a-119" target="E2q93yiUl6-ZoSUlAbcf-32">
          <mxGeometry relative="1" as="geometry" />
        </mxCell>
        <mxCell id="E2q93yiUl6-ZoSUlAbcf-130" style="edgeStyle=orthogonalEdgeStyle;rounded=0;orthogonalLoop=1;jettySize=auto;html=1;entryX=0;entryY=0.5;entryDx=0;entryDy=0;entryPerimeter=0;" edge="1" parent="WIyWlLk6GJQsqaUBKTNV-1" source="PbRjBfNZ1IPVbh-uNb9a-119" target="E2q93yiUl6-ZoSUlAbcf-35">
          <mxGeometry relative="1" as="geometry">
            <Array as="points">
              <mxPoint x="670" y="185" />
              <mxPoint x="670" y="205" />
            </Array>
          </mxGeometry>
        </mxCell>
        <mxCell id="E2q93yiUl6-ZoSUlAbcf-131" style="edgeStyle=orthogonalEdgeStyle;rounded=0;orthogonalLoop=1;jettySize=auto;html=1;entryX=0;entryY=0.5;entryDx=0;entryDy=0;entryPerimeter=0;" edge="1" parent="WIyWlLk6GJQsqaUBKTNV-1" source="PbRjBfNZ1IPVbh-uNb9a-119" target="E2q93yiUl6-ZoSUlAbcf-38">
          <mxGeometry relative="1" as="geometry">
            <Array as="points">
              <mxPoint x="670" y="185" />
              <mxPoint x="670" y="224" />
            </Array>
          </mxGeometry>
        </mxCell>
        <mxCell id="E2q93yiUl6-ZoSUlAbcf-132" style="edgeStyle=orthogonalEdgeStyle;rounded=0;orthogonalLoop=1;jettySize=auto;html=1;entryX=0;entryY=0.5;entryDx=0;entryDy=0;entryPerimeter=0;" edge="1" parent="WIyWlLk6GJQsqaUBKTNV-1" source="PbRjBfNZ1IPVbh-uNb9a-119" target="E2q93yiUl6-ZoSUlAbcf-41">
          <mxGeometry relative="1" as="geometry">
            <Array as="points">
              <mxPoint x="670" y="185" />
              <mxPoint x="670" y="244" />
            </Array>
          </mxGeometry>
        </mxCell>
        <mxCell id="E2q93yiUl6-ZoSUlAbcf-133" style="edgeStyle=orthogonalEdgeStyle;rounded=0;orthogonalLoop=1;jettySize=auto;html=1;entryX=0;entryY=0.5;entryDx=0;entryDy=0;entryPerimeter=0;" edge="1" parent="WIyWlLk6GJQsqaUBKTNV-1" source="PbRjBfNZ1IPVbh-uNb9a-91" target="E2q93yiUl6-ZoSUlAbcf-18">
          <mxGeometry relative="1" as="geometry" />
        </mxCell>
        <mxCell id="E2q93yiUl6-ZoSUlAbcf-134" style="edgeStyle=orthogonalEdgeStyle;rounded=0;orthogonalLoop=1;jettySize=auto;html=1;entryX=0;entryY=0.5;entryDx=0;entryDy=0;entryPerimeter=0;" edge="1" parent="WIyWlLk6GJQsqaUBKTNV-1" source="PbRjBfNZ1IPVbh-uNb9a-91" target="E2q93yiUl6-ZoSUlAbcf-19">
          <mxGeometry relative="1" as="geometry">
            <Array as="points">
              <mxPoint x="670" y="323" />
              <mxPoint x="670" y="344" />
            </Array>
          </mxGeometry>
        </mxCell>
        <mxCell id="E2q93yiUl6-ZoSUlAbcf-135" style="edgeStyle=orthogonalEdgeStyle;rounded=0;orthogonalLoop=1;jettySize=auto;html=1;entryX=0;entryY=0.5;entryDx=0;entryDy=0;entryPerimeter=0;" edge="1" parent="WIyWlLk6GJQsqaUBKTNV-1" source="PbRjBfNZ1IPVbh-uNb9a-91" target="E2q93yiUl6-ZoSUlAbcf-20">
          <mxGeometry relative="1" as="geometry">
            <Array as="points">
              <mxPoint x="670" y="323" />
              <mxPoint x="670" y="365" />
            </Array>
          </mxGeometry>
        </mxCell>
        <mxCell id="E2q93yiUl6-ZoSUlAbcf-136" value="" style="shape=mxgraph.arrows.arrow_down;html=1;verticalLabelPosition=bottom;verticalAlign=top;strokeWidth=2;strokeColor=#000000;" vertex="1" parent="WIyWlLk6GJQsqaUBKTNV-1">
          <mxGeometry x="700" y="270" width="70" height="27" as="geometry" />
        </mxCell>
        <mxCell id="E2q93yiUl6-ZoSUlAbcf-137" value="" style="shape=mxgraph.arrows.arrow_down;html=1;verticalLabelPosition=bottom;verticalAlign=top;strokeWidth=2;strokeColor=#000000;" vertex="1" parent="WIyWlLk6GJQsqaUBKTNV-1">
          <mxGeometry x="572" y="270" width="70" height="27" as="geometry" />
        </mxCell>
      </root>
    </mxGraphModel>
  </diagram>
</mxfile>
